<svg xmlns="http://www.w3.org/2000/svg" width="1288" height="725" viewBox="0 0 1288 725" role="img" aria-labelledby="title desc">
  <title id="title">버추얼 프로덕션 파이프라인</title>
  <desc id="desc">개발 및 프리프로덕션, 프로덕션, 포스트프로덕션이 실시간 피드백으로 순환하는 제작 흐름도</desc>
  <defs>
    <linearGradient id="header" x1="0" x2="1"><stop stop-color="#1f7f43"/><stop offset=".55" stop-color="#28a858"/><stop offset="1" stop-color="#67ca8b"/></linearGradient>
    <linearGradient id="flow" x1="0" x2="1"><stop stop-color="#28a858"/><stop offset="1" stop-color="#67ca8b"/></linearGradient>
    <filter id="glow"><feGaussianBlur stdDeviation="5" result="b"/><feMerge><feMergeNode in="b"/><feMergeNode in="SourceGraphic"/></feMerge></filter>
    <marker id="arrow" viewBox="0 0 10 10" refX="8" refY="5" markerWidth="8" markerHeight="8" orient="auto-start-reverse"><path d="M0 0l10 5-10 5z" fill="#67ca8b"/></marker>
    <style>
      text{font-family:Pretendard,'Noto Sans KR','Apple SD Gothic Neo',Arial,sans-serif} .phase{fill:#9ca69e;font-size:16px;font-weight:700;letter-spacing:1.5px}.node{fill:#0f1511;stroke:#3d6b4c;stroke-width:2}.node-main{fill:#12251a;stroke:#28a858;stroke-width:2}.label{fill:#f7f7f4;font-size:14px;font-weight:650;text-anchor:middle}.sub{fill:#9ca69e;font-size:11px;text-anchor:middle}.line{fill:none;stroke:#3d6b4c;stroke-width:2}.flow{fill:none;stroke:url(#flow);stroke-width:10;stroke-linecap:round;opacity:.78}
    </style>
  </defs>
  <rect width="1288" height="725" fill="#080a09"/>
  <rect width="1288" height="82" fill="url(#header)"/>
  <text x="644" y="52" fill="#fff" font-size="26" font-weight="800" text-anchor="middle" letter-spacing="-.5">버추얼 프로덕션 파이프라인</text>
  <path d="M48 83h1192" stroke="#67ca8b" opacity=".55"/>
  <path d="M252 83v642M790 83v642M1084 83v642" stroke="#fff" opacity=".11"/>
  <text class="phase" x="521" y="121" text-anchor="middle">DEVELOPMENT / PRE-PRODUCTION</text>
  <text class="phase" x="937" y="121" text-anchor="middle">PRODUCTION</text>
  <text class="phase" x="1185" y="121" text-anchor="middle">POST-PRODUCTION</text>
  <path class="flow" d="M92 205C145 145 250 144 328 171H1028c107 0 170 60 170 148" marker-end="url(#arrow)"/>
  <path class="flow" d="M1198 410c0 118-90 160-192 160H350c-110 0-186-43-222-117" marker-end="url(#arrow)"/>
  <path class="line" d="M137 326h56M235 326h42M363 326h46M495 326h42M625 326h47M766 326h38M920 326h44M1038 326h38M1148 326h32" marker-end="url(#arrow)"/>
  <g transform="translate(46 286)"><rect class="node-main" width="92" height="80" rx="40"/><text class="label" x="46" y="34">아이디어</text><text class="sub" x="46" y="54">대본·기획</text></g>
  <g transform="translate(193 296)"><rect class="node" width="72" height="60" rx="30"/><text class="label" x="36" y="36">피치비스</text></g>
  <g transform="translate(277 270)"><rect class="node-main" width="86" height="112" rx="43"/><text class="label" x="43" y="55">아트</text><text class="sub" x="43" y="75">부서</text></g>
  <path class="line" d="M363 295h25v-80h28M363 326h53M363 357h25v80h28"/>
  <g transform="translate(416 184)"><rect class="node" width="96" height="62" rx="31"/><text class="label" x="48" y="29">프리비즈</text><text class="sub" x="48" y="46">부서</text></g>
  <g transform="translate(416 295)"><rect class="node" width="96" height="62" rx="31"/><text class="label" x="48" y="29">가상 아트</text><text class="sub" x="48" y="46">부서</text></g>
  <g transform="translate(416 406)"><rect class="node" width="96" height="62" rx="31"/><text class="label" x="48" y="29">VFX</text><text class="sub" x="48" y="46">부서</text></g>
  <path class="line" d="M512 215h25v111M512 326h25M512 437h25v-111"/>
  <g transform="translate(537 277)"><rect class="node-main" width="88" height="98" rx="44"/><text class="label" x="44" y="45">가상 아트</text><text class="sub" x="44" y="64">부서</text></g>
  <g transform="translate(672 277)"><rect class="node-main" width="94" height="98" rx="47"/><text class="label" x="47" y="42">UE5</text><text class="sub" x="47" y="61">최종 에셋</text></g>
  <path class="line" d="M719 277v-81h82M719 375v82h82"/>
  <g transform="translate(801 170)"><rect class="node" width="98" height="52" rx="26"/><text class="label" x="49" y="31">스턴트비스</text></g>
  <g transform="translate(801 236)"><rect class="node" width="98" height="52" rx="26"/><text class="label" x="49" y="31">프리비스</text></g>
  <g transform="translate(801 302)"><rect class="node" width="98" height="52" rx="26"/><text class="label" x="49" y="31">테크비스</text></g>
  <g transform="translate(801 434)"><rect class="node" width="98" height="52" rx="26"/><text class="label" x="49" y="31">모션 캡처</text></g>
  <path class="line" d="M899 196h22v130M899 262h22M899 328h22M899 460h22V326"/>
  <g transform="translate(921 260)"><rect class="node-main" width="116" height="132" rx="58"/><text class="label" x="58" y="51">라이브 액션</text><text class="sub" x="58" y="72">촬영·합성</text><text class="sub" x="58" y="90">실시간 검토</text></g>
  <path class="line" d="M979 260v-73h68M979 392v73h68"/>
  <g transform="translate(1047 158)"><rect class="node" width="104" height="58" rx="29"/><text class="label" x="52" y="27">그린스크린</text><text class="sub" x="52" y="44">촬영</text></g>
  <g transform="translate(1047 436)"><rect class="node" width="104" height="58" rx="29"/><text class="label" x="52" y="27">LED 월</text><text class="sub" x="52" y="44">인카메라 VFX</text></g>
  <g transform="translate(1076 287)"><rect class="node-main" width="72" height="78" rx="36"/><text class="label" x="36" y="46">포스트비스</text></g>
  <g transform="translate(1180 286)"><rect class="node" width="72" height="80" rx="36"/><text class="label" x="36" y="35">편집</text><text class="sub" x="36" y="53">VFX</text></g>
  <g transform="translate(1088 540)"><rect class="node" width="112" height="48" rx="24"/><text class="label" x="56" y="30">최종 편집·배포</text></g>
  <g transform="translate(336 616)"><rect x="0" y="0" width="616" height="58" rx="29" fill="#0e1c14" stroke="#28a858"/><text x="44" y="36" fill="#67ca8b" font-size="25">↺</text><text x="82" y="27" fill="#f7f7f4" font-size="15" font-weight="700">실시간 피드백 루프</text><text x="82" y="44" fill="#9ca69e" font-size="11">후반의 검토 결과가 기획과 가상 제작 단계로 돌아가 장면의 완성도를 높입니다.</text></g>
</svg>